# Blender v3.0.1 OBJ File: 'cube.blend'
# www.blender.org
mtllib cube.mtl
o Cube
v 0.035000 0.035000 0.035000
v 0.035000 0.035000 -0.035000
v 0.035000 -0.035000 0.035000
v 0.035000 -0.035000 -0.035000
v -0.035000 0.035000 0.035000
v -0.035000 0.035000 -0.035000
v -0.035000 -0.035000 0.035000
v -0.035000 -0.035000 -0.035000
vt 0.999900 0.999900
vt 0.000100 0.999900
vt 0.000100 0.000100
vt 0.999900 0.000100
vt 0.000100 0.999900
vt 0.000100 0.000100
vt 0.999900 0.000100
vt 0.999900 0.999900
vt 0.000100 0.999900
vt 0.000100 0.000100
vt 0.999900 0.999900
vt 0.000100 0.999900
vt 0.000100 0.000100
vt 0.999900 0.000100
vt 1.000000 0.000000
vt 0.000000 0.000000
vt 0.000000 1.000000
vt 1.000000 1.000000
vt 0.999900 0.999900
vt 0.000100 0.999900
vt 0.000100 0.000100
vt 0.999900 0.000100
vn 1.0000 0.0000 0.0000
vn 0.0000 1.0000 0.0000
vn 0.0000 -1.0000 0.0000
vn 0.0000 0.0000 1.0000
vn -1.0000 0.0000 0.0000
vn 0.0000 0.0000 -1.0000
usemtl right
s off
f 2/1/1 1/2/1 3/3/1 4/4/1
usemtl up
f 6/5/2 5/6/2 1/7/2 2/1/2
usemtl down
f 4/4/3 3/8/3 7/9/3 8/10/3
usemtl front
f 1/11/4 5/12/4 7/13/4 3/14/4
usemtl left
f 8/15/5 7/16/5 5/17/5 6/18/5
usemtl Material
f 6/19/6 2/20/6 4/21/6 8/22/6
